IKResults
version=1
nRows=11
nColumns=40
inDegrees=yes

Units are S.I. units (second, meters, Newtons, ...)
Angles are in degrees.

endheader
time	pelvis_tilt	pelvis_list	pelvis_rotation	pelvis_tx	pelvis_ty	pelvis_tz	hip_flexion_r	hip_adduction_r	hip_rotation_r	knee_angle_r	knee_angle_r_beta	ankle_angle_r	subtalar_angle_r	mtp_angle_r	hip_flexion_l	hip_adduction_l	hip_rotation_l	knee_angle_l	knee_angle_l_beta	ankle_angle_l	subtalar_angle_l	mtp_angle_l	lumbar_extension	lumbar_bending	lumbar_rotation	arm_flex_r	arm_add_r	arm_rot_r	elbow_flex_r	pro_sup_r	wrist_flex_r	wrist_dev_r	arm_flex_l	arm_add_l	arm_rot_l	elbow_flex_l	pro_sup_l	wrist_flex_l	wrist_dev_l
      1.41000000	     17.82605557	     -3.72047188	      7.75238189	      0.13765878	      0.95162443	     -0.99320513	    -12.07761317	      6.51721963	    -19.77458514	    -13.05918708	     -0.22792581	      4.06793472	      7.22833738	     -6.57940024	    -18.65428438	     10.22159432	      4.13699176	    -48.36654713	     -0.84415550	      1.48630781	     18.40463016	     -1.99687471	    -23.32434076	      5.09612269	     -6.09063245	     -4.19060742	     -9.19292485	      4.81484108	     22.59875118	     89.95437384	      0.00000000	      0.00000000	      9.66901168	     11.21213641	      5.92790523	     26.24077836	     89.95437384	      0.00000000	      0.00000000
      1.42000000	     17.76057139	     -3.76588474	      7.59324172	      0.14567078	      0.95202357	     -0.99160357	    -12.89075385	      6.78997155	    -19.41494736	    -12.35873866	     -0.21570068	      4.28462446	      7.90775440	     -6.52962825	    -17.61881261	     10.21367481	      4.15943264	    -48.99833857	     -0.85518234	      3.36927376	     18.50650121	     -1.30544252	    -23.34285736	      5.04008238	     -5.72925597	     -3.60331560	     -9.35622032	      4.26586067	     23.27941879	     89.95437384	      0.00000000	      0.00000000	      9.06225344	     11.03853443	      6.57375720	     25.51910190	     89.95437384	      0.00000000	      0.00000000
      1.43000000	     17.66165922	     -3.61103103	      7.39459180	      0.15340700	      0.95256829	     -0.99033686	    -13.58442975	      6.77659662	    -18.98437237	    -11.94446234	     -0.20847020	      4.59990279	      7.91965711	     -4.21673701	    -16.52284955	      9.80692241	      4.00957690	    -49.54479775	     -0.86471985	      5.19953944	     18.25850494	     13.73043966	    -23.38389190	      4.79502258	     -5.42811690	     -2.85286427	     -9.39705824	      3.09978643	     23.64601384	     89.95437384	      0.00000000	      0.00000000	      8.55742655	     10.78114021	      7.52224566	     24.62304912	     89.95437384	      0.00000000	      0.00000000
      1.44000000	     17.61471921	     -3.50851647	      7.10911799	      0.16126212	      0.95295803	     -0.98870138	    -14.21837197	      6.74590856	    -19.01360123	    -11.70996343	     -0.20437742	      4.87101947	      8.04603247	     -4.21895545	    -15.55425331	      9.57999774	      4.01969230	    -49.71515041	     -0.86769306	      5.83605207	     18.38549597	     13.58935638	    -23.42033129	      4.53164688	     -5.06968746	     -2.09486637	     -9.56782837	      2.75236278	     24.08314381	     89.95437384	      0.00000000	      0.00000000	      7.81622200	     10.77039466	      7.66277650	     24.08712961	     89.95437384	      0.00000000	      0.00000000
      1.45000000	     17.47630357	     -3.34841250	      6.96946471	      0.16905297	      0.95324828	     -0.98757385	    -14.90208838	      6.72734789	    -18.59882352	    -11.15389628	     -0.19467221	      5.13199043	      8.59992882	     -4.22724668	    -14.49849073	      9.14261057	      3.51007674	    -49.66481110	     -0.86681448	      6.84176696	     18.39966831	     13.47414603	    -23.37212775	      4.28532732	     -4.84166839	     -1.41438582	     -9.55599784	      1.34307439	     24.63938732	     89.95437384	      0.00000000	      0.00000000	      7.20153813	     10.56178522	      8.37448789	     23.32081646	     89.95437384	      0.00000000	      0.00000000
      1.46000000	     17.33732521	     -3.15886998	      6.77726204	      0.17669801	      0.95348595	     -0.98642043	    -15.42965272	      6.60876384	    -18.38864335	    -10.91674415	     -0.19053313	      5.40003719	      8.78160899	     -4.20754606	    -13.43167133	      8.69343301	      3.12206155	    -49.47135420	     -0.86343802	      7.45955903	     18.34774010	     13.38043145	    -23.33224259	      3.98594129	     -4.60265346	     -0.72217510	     -9.59746878	      0.32049812	     25.17937231	     89.95437384	      0.00000000	      0.00000000	      6.56574726	     10.42496834	      8.90821787	     22.59893793	     89.95437384	      0.00000000	      0.00000000
      1.47000000	     17.16460466	     -3.03014693	      6.56612264	      0.18442453	      0.95354230	     -0.98526882	    -15.86453236	      6.52215551	    -18.32219583	    -10.78240867	     -0.18818853	      5.71155729	      8.81765985	     -4.18975885	    -12.33968225	      8.35930605	      2.89188392	    -49.13261302	     -0.85752587	      8.05512317	     18.25305502	     13.22400977	    -23.21063623	      3.72892880	     -4.38487059	      0.00476509	     -9.71479395	     -0.32771810	     25.71904630	     89.95437384	      0.00000000	      0.00000000	      5.80739509	     10.34674421	      9.13010676	     22.04153679	     89.95437384	      0.00000000	      0.00000000
      1.48000000	     17.00533745	     -2.78837224	      6.41522704	      0.19172980	      0.95362055	     -0.98438667	    -16.34255925	      6.34817056	    -18.07324457	    -10.55979816	     -0.18430325	      6.08334864	      8.91536999	     -4.16563576	    -11.23737002	      7.72828854	      2.16721781	    -48.68809388	     -0.84976754	      8.90420077	     18.16308574	     13.02841672	    -23.19806137	      3.40064810	     -4.20743587	      0.70535341	     -9.70300724	     -1.62449664	     26.44632994	     89.95437384	      0.00000000	      0.00000000	      5.19594871	     10.19573113	      9.62120934	     21.39365205	     89.95437384	      0.00000000	      0.00000000
      1.49000000	     16.68851938	     -2.89130046	      6.20969959	      0.19903941	      0.95329459	     -0.98320004	    -16.54594726	      6.53926106	    -17.57501510	    -10.43002963	     -0.18203836	      6.24874369	      8.50465988	     -4.00770265	     -9.85519456	      7.64260395	      1.94540209	    -48.27347435	     -0.84253107	      9.57963340	     17.98830461	     12.23519209	    -22.95933125	      3.37176957	     -3.90118520	      1.43605314	     -9.75822158	     -2.56810437	     27.06469515	     89.95437384	      0.00000000	      0.00000000	      4.53726396	     10.02916632	      9.99745745	     20.76741586	     89.95437384	      0.00000000	      0.00000000
      1.50000000	     16.67432947	     -2.41805153	      6.09908743	      0.20653634	      0.95354615	     -0.98262918	    -17.16352257	      6.09612789	    -17.75496230	    -10.30465887	     -0.17985023	      6.56200647	      8.55728573	     -3.89312484	     -9.05103291	      6.80055213	      1.29706944	    -47.35098515	     -0.82643060	     10.03010158	     17.94820653	     11.97884354	    -23.07699490	      2.82435766	     -3.81762519	      2.08783981	     -9.68027290	     -3.94347812	     27.83561806	     89.95437384	      0.00000000	      0.00000000	      3.95881537	      9.93601474	     10.21711770	     20.10130796	     89.95437384	      0.00000000	      0.00000000
      1.51000000	     16.39937737	     -2.40017174	      5.86788959	      0.21366907	      0.95312009	     -0.98162891	    -17.23766967	      6.07043297	    -17.81450638	    -10.48856039	     -0.18305991	      6.78582352	      8.32718634	     -3.84389757	     -7.70362665	      6.63897257	      1.35241872	    -46.76448340	     -0.81619421	     10.22488889	     17.87929801	     11.71055248	    -22.91641394	      2.67455040	     -3.59522703	      2.87288475	     -9.85775500	     -4.09396922	     28.51113826	     89.95437384	      0.00000000	      0.00000000	      3.17020419	      9.86965295	     10.11255285	     19.82004246	     89.95437384	      0.00000000	      0.00000000
